<svg width="23" height="22" viewBox="0 0 23 22" fill="none" xmlns="http://www.w3.org/2000/svg">
<path fill-rule="evenodd" clip-rule="evenodd" d="M21.3584 0H1.64278C0.735425 0 0 0.735425 0 1.64278V14.7856C0 15.6929 0.735425 16.4272 1.64278 16.4272H4.9289V20.5419C4.9289 20.543 4.9289 20.5442 4.9289 20.5453C4.93465 20.9944 5.30035 21.3561 5.75 21.3561C6.01162 21.3561 6.24393 21.2336 6.39458 21.0439L11.0274 16.4272H21.3584C22.2646 16.4272 23 15.6929 23 14.7856V1.64335C23 0.736 22.2646 0 21.3584 0ZM21.869 14.1795C21.869 14.6533 21.4849 15.0363 21.0122 15.0363H10.5961L6.31638 19.2614V15.0368H5.44467H1.98778C1.51513 15.0368 1.13102 14.6539 1.13102 14.1801V2.06885C1.13102 1.59505 1.51513 1.2121 1.98778 1.2121H21.0122C21.4849 1.2121 21.869 1.59505 21.869 2.06885V14.1795ZM18.983 5.75C18.983 6.06683 18.726 6.325 18.408 6.325H6.4147C6.09672 6.325 5.8397 6.06683 5.8397 5.75C5.8397 5.43203 6.09672 5.175 6.4147 5.175H18.4075C18.7255 5.175 18.983 5.4326 18.983 5.75ZM15.3462 9.03613C15.3462 9.35295 15.0891 9.61113 14.7712 9.61113H6.4147C6.09788 9.61113 5.8397 9.35295 5.8397 9.03613C5.8397 8.71815 6.09788 8.46113 6.4147 8.46113H14.7712C15.0891 8.46113 15.3462 8.71815 15.3462 9.03613Z" fill="black"/>
</svg>
