<svg width="26" height="32" viewBox="0 0 26 32" fill="none" xmlns="http://www.w3.org/2000/svg">
<g clip-path="url(#clip0_4_162)">
<rect width="25.6" height="32" fill="white"/>
<path d="M9.86667 8.53333H1.86667C1.3716 8.53333 0.896802 8.33667 0.546734 7.9866C0.196666 7.63653 0 7.16174 0 6.66667V1.86667C0 1.3716 0.196666 0.896802 0.546734 0.546734C0.896802 0.196666 1.3716 0 1.86667 0H9.86667C10.3617 0 10.8365 0.196666 11.1866 0.546734C11.5367 0.896802 11.7333 1.3716 11.7333 1.86667V6.66667C11.7333 7.16174 11.5367 7.63653 11.1866 7.9866C10.8365 8.33667 10.3617 8.53333 9.86667 8.53333ZM1.86667 1.6C1.79594 1.6 1.72811 1.6281 1.6781 1.6781C1.6281 1.72811 1.6 1.79594 1.6 1.86667V6.66667C1.6 6.73739 1.6281 6.80522 1.6781 6.85523C1.72811 6.90524 1.79594 6.93333 1.86667 6.93333H9.86667C9.93739 6.93333 10.0052 6.90524 10.0552 6.85523C10.1052 6.80522 10.1333 6.73739 10.1333 6.66667V1.86667C10.1333 1.79594 10.1052 1.72811 10.0552 1.6781C10.0052 1.6281 9.93739 1.6 9.86667 1.6H1.86667Z" fill="black"/>
<path d="M9.86667 8.53333H1.86667C1.3716 8.53333 0.896802 8.33667 0.546734 7.9866C0.196666 7.63653 0 7.16174 0 6.66667V1.86667C0 1.3716 0.196666 0.896802 0.546734 0.546734C0.896802 0.196666 1.3716 0 1.86667 0H9.86667C10.3617 0 10.8365 0.196666 11.1866 0.546734C11.5367 0.896802 11.7333 1.3716 11.7333 1.86667V6.66667C11.7333 7.16174 11.5367 7.63653 11.1866 7.9866C10.8365 8.33667 10.3617 8.53333 9.86667 8.53333ZM1.86667 1.6C1.79594 1.6 1.72811 1.6281 1.6781 1.6781C1.6281 1.72811 1.6 1.79594 1.6 1.86667V6.66667C1.6 6.73739 1.6281 6.80522 1.6781 6.85523C1.72811 6.90524 1.79594 6.93333 1.86667 6.93333H9.86667C9.93739 6.93333 10.0052 6.90524 10.0552 6.85523C10.1052 6.80522 10.1333 6.73739 10.1333 6.66667V1.86667C10.1333 1.79594 10.1052 1.72811 10.0552 1.6781C10.0052 1.6281 9.93739 1.6 9.86667 1.6H1.86667Z" stroke="black"/>
<path d="M9.86667 25.6H1.86667C1.3716 25.6 0.896802 25.4033 0.546734 25.0533C0.196666 24.7032 0 24.2284 0 23.7333V12.5333C0 12.0383 0.196666 11.5635 0.546734 11.2134C0.896802 10.8633 1.3716 10.6667 1.86667 10.6667H9.86667C10.3617 10.6667 10.8365 10.8633 11.1866 11.2134C11.5367 11.5635 11.7333 12.0383 11.7333 12.5333V23.7333C11.7333 24.2284 11.5367 24.7032 11.1866 25.0533C10.8365 25.4033 10.3617 25.6 9.86667 25.6ZM1.86667 12.2667C1.79594 12.2667 1.72811 12.2948 1.6781 12.3448C1.6281 12.3948 1.6 12.4626 1.6 12.5333V23.7333C1.6 23.804 1.6281 23.8719 1.6781 23.9219C1.72811 23.9719 1.79594 24 1.86667 24H9.86667C9.93739 24 10.0052 23.9719 10.0552 23.9219C10.1052 23.8719 10.1333 23.804 10.1333 23.7333V12.5333C10.1333 12.4626 10.1052 12.3948 10.0552 12.3448C10.0052 12.2948 9.93739 12.2667 9.86667 12.2667H1.86667Z" fill="black"/>
<path d="M9.86667 25.6H1.86667C1.3716 25.6 0.896802 25.4033 0.546734 25.0533C0.196666 24.7032 0 24.2284 0 23.7333V12.5333C0 12.0383 0.196666 11.5635 0.546734 11.2134C0.896802 10.8633 1.3716 10.6667 1.86667 10.6667H9.86667C10.3617 10.6667 10.8365 10.8633 11.1866 11.2134C11.5367 11.5635 11.7333 12.0383 11.7333 12.5333V23.7333C11.7333 24.2284 11.5367 24.7032 11.1866 25.0533C10.8365 25.4033 10.3617 25.6 9.86667 25.6ZM1.86667 12.2667C1.79594 12.2667 1.72811 12.2948 1.6781 12.3448C1.6281 12.3948 1.6 12.4626 1.6 12.5333V23.7333C1.6 23.804 1.6281 23.8719 1.6781 23.9219C1.72811 23.9719 1.79594 24 1.86667 24H9.86667C9.93739 24 10.0052 23.9719 10.0552 23.9219C10.1052 23.8719 10.1333 23.804 10.1333 23.7333V12.5333C10.1333 12.4626 10.1052 12.3948 10.0552 12.3448C10.0052 12.2948 9.93739 12.2667 9.86667 12.2667H1.86667Z" stroke="black"/>
<path d="M23.7333 25.6H15.7333C15.2382 25.6 14.7634 25.4033 14.4134 25.0533C14.0633 24.7032 13.8666 24.2284 13.8666 23.7333V18.9333C13.8666 18.4383 14.0633 17.9635 14.4134 17.6134C14.7634 17.2633 15.2382 17.0667 15.7333 17.0667H23.7333C24.2284 17.0667 24.7032 17.2633 25.0532 17.6134C25.4033 17.9635 25.6 18.4383 25.6 18.9333V23.7333C25.6 24.2284 25.4033 24.7032 25.0532 25.0533C24.7032 25.4033 24.2284 25.6 23.7333 25.6ZM15.7333 18.6667C15.6626 18.6667 15.5948 18.6948 15.5447 18.7448C15.4947 18.7948 15.4666 18.8626 15.4666 18.9333V23.7333C15.4666 23.8041 15.4947 23.8719 15.5447 23.9219C15.5948 23.9719 15.6626 24 15.7333 24H23.7333C23.804 24 23.8719 23.9719 23.9219 23.9219C23.9719 23.8719 24 23.8041 24 23.7333V18.9333C24 18.8626 23.9719 18.7948 23.9219 18.7448C23.8719 18.6948 23.804 18.6667 23.7333 18.6667H15.7333Z" fill="black"/>
<path d="M23.7333 25.6H15.7333C15.2382 25.6 14.7634 25.4033 14.4134 25.0533C14.0633 24.7032 13.8666 24.2284 13.8666 23.7333V18.9333C13.8666 18.4383 14.0633 17.9635 14.4134 17.6134C14.7634 17.2633 15.2382 17.0667 15.7333 17.0667H23.7333C24.2284 17.0667 24.7032 17.2633 25.0532 17.6134C25.4033 17.9635 25.6 18.4383 25.6 18.9333V23.7333C25.6 24.2284 25.4033 24.7032 25.0532 25.0533C24.7032 25.4033 24.2284 25.6 23.7333 25.6ZM15.7333 18.6667C15.6626 18.6667 15.5948 18.6948 15.5447 18.7448C15.4947 18.7948 15.4666 18.8626 15.4666 18.9333V23.7333C15.4666 23.8041 15.4947 23.8719 15.5447 23.9219C15.5948 23.9719 15.6626 24 15.7333 24H23.7333C23.804 24 23.8719 23.9719 23.9219 23.9219C23.9719 23.8719 24 23.8041 24 23.7333V18.9333C24 18.8626 23.9719 18.7948 23.9219 18.7448C23.8719 18.6948 23.804 18.6667 23.7333 18.6667H15.7333Z" stroke="black"/>
<path d="M23.7333 14.9333H15.7333C15.2382 14.9333 14.7634 14.7367 14.4134 14.3866C14.0633 14.0365 13.8666 13.5617 13.8666 13.0667V1.86667C13.8666 1.3716 14.0633 0.896802 14.4134 0.546734C14.7634 0.196666 15.2382 0 15.7333 0H23.7333C24.2284 0 24.7032 0.196666 25.0532 0.546734C25.4033 0.896802 25.6 1.3716 25.6 1.86667V13.0667C25.6 13.5617 25.4033 14.0365 25.0532 14.3866C24.7032 14.7367 24.2284 14.9333 23.7333 14.9333ZM15.7333 1.6C15.6626 1.6 15.5948 1.6281 15.5447 1.6781C15.4947 1.72811 15.4666 1.79594 15.4666 1.86667V13.0667C15.4666 13.1374 15.4947 13.2052 15.5447 13.2552C15.5948 13.3052 15.6626 13.3333 15.7333 13.3333H23.7333C23.804 13.3333 23.8719 13.3052 23.9219 13.2552C23.9719 13.2052 24 13.1374 24 13.0667V1.86667C24 1.79594 23.9719 1.72811 23.9219 1.6781C23.8719 1.6281 23.804 1.6 23.7333 1.6H15.7333Z" fill="black"/>
<path d="M23.7333 14.9333H15.7333C15.2382 14.9333 14.7634 14.7367 14.4134 14.3866C14.0633 14.0365 13.8666 13.5617 13.8666 13.0667V1.86667C13.8666 1.3716 14.0633 0.896802 14.4134 0.546734C14.7634 0.196666 15.2382 0 15.7333 0H23.7333C24.2284 0 24.7032 0.196666 25.0532 0.546734C25.4033 0.896802 25.6 1.3716 25.6 1.86667V13.0667C25.6 13.5617 25.4033 14.0365 25.0532 14.3866C24.7032 14.7367 24.2284 14.9333 23.7333 14.9333ZM15.7333 1.6C15.6626 1.6 15.5948 1.6281 15.5447 1.6781C15.4947 1.72811 15.4666 1.79594 15.4666 1.86667V13.0667C15.4666 13.1374 15.4947 13.2052 15.5447 13.2552C15.5948 13.3052 15.6626 13.3333 15.7333 13.3333H23.7333C23.804 13.3333 23.8719 13.3052 23.9219 13.2552C23.9719 13.2052 24 13.1374 24 13.0667V1.86667C24 1.79594 23.9719 1.72811 23.9219 1.6781C23.8719 1.6281 23.804 1.6 23.7333 1.6H15.7333Z" stroke="black"/>
</g>
<defs>
<clipPath id="clip0_4_162">
<rect width="25.6" height="32" fill="white"/>
</clipPath>
</defs>
</svg>
