<svg width="24" height="26" viewBox="0 0 24 26" fill="none" xmlns="http://www.w3.org/2000/svg">
<path d="M21.2085 14.3614C21.8197 13.5515 21.7906 12.3516 21.0629 11.6017C20.8301 11.3617 20.5099 11.1818 20.1897 11.0918C20.3062 10.8218 20.3644 10.5218 20.3644 10.2219C20.3644 9.65194 20.1606 9.142 19.7822 8.75205C19.0546 8.00214 17.9485 7.94215 17.1626 8.54207C17.0753 8.3021 16.9589 8.06213 16.7842 7.85216C16.4059 7.43221 15.8819 7.16224 15.3289 7.16224C14.805 7.13224 14.2811 7.34222 13.9027 7.73217C13.8445 7.64218 13.7863 7.52219 13.6989 7.4622C13.3206 7.04225 12.7966 6.77228 12.2436 6.77228C11.6615 6.74229 11.1376 6.98226 10.7592 7.37221L7.84851 10.3419C7.52834 9.08201 6.36407 8.21211 5.08338 8.36209C4.7341 8.39209 4.41393 8.57207 4.18108 8.81204C3.65716 8.21211 2.84217 7.85216 1.99808 7.94215C1.2122 8.03213 0.600962 8.72205 0.600962 9.56195L0.630069 13.9114C0.630069 15.0513 0.484536 16.2212 0.222576 17.241V17.271C-0.359557 19.3708 0.222576 21.6205 1.70701 23.1503C3.24967 24.7401 5.31624 25.61 7.47013 25.61C7.64477 25.61 7.84851 25.61 8.02315 25.58C8.83814 25.85 9.71134 26 10.5554 26C12.6511 26 14.7468 25.1901 16.3185 23.5403L21.9361 17.721C22.3145 17.331 22.5183 16.7911 22.5183 16.2512C22.5183 15.6812 22.3145 15.1713 21.9361 14.7813C21.7324 14.6014 21.4704 14.4514 21.2085 14.3614ZM11.6033 8.24211C11.7779 8.06213 12.0108 8.00214 12.2145 8.00214C12.4474 8.00214 12.6511 8.12212 12.7966 8.27211C12.884 8.39209 12.9422 8.54207 12.9422 8.69206L8.13958 13.7615L7.99405 11.9317L11.6033 8.24211ZM2.55111 22.3104C1.35773 21.0806 0.921135 19.3108 1.35773 17.661C1.67791 16.4611 1.82344 15.2013 1.82344 13.9414L1.79433 9.59195C1.79433 9.41197 1.93987 9.23199 2.11451 9.23199C2.87128 9.142 3.54073 9.71194 3.62805 10.4618L3.68626 11.1818L3.71537 14.3314C3.71537 15.4713 3.56984 16.6111 3.33699 17.631C3.33699 17.661 3.30788 17.661 3.30788 17.691C2.72575 19.7907 3.30788 22.0405 4.79232 23.5703C4.93785 23.7203 5.11249 23.8703 5.25802 24.0202C4.23929 23.6603 3.30788 23.0903 2.55111 22.3104ZM21.092 16.8811L15.4745 22.7004C12.7675 25.4901 8.34333 25.4901 5.63641 22.7004C4.47214 21.5005 4.00644 19.7307 4.44304 18.0809V18.0509C4.76321 16.8211 4.90874 15.5912 4.90874 14.3314V9.9819C4.90874 9.80192 5.05428 9.62195 5.22892 9.62195C5.98569 9.53196 6.65514 10.1019 6.74246 10.8518L6.94621 13.8814C7.00442 14.3314 7.29549 14.7213 7.70298 14.8713C8.13958 15.0213 8.57618 14.9013 8.89635 14.6014L14.6595 8.66206C14.8341 8.48208 14.9796 8.39209 15.2707 8.42209C15.5036 8.42209 15.7073 8.54207 15.8528 8.69206C16.1148 8.99202 16.0857 9.59195 15.7655 9.92191L11.4868 14.3614C11.254 14.6014 11.254 14.9913 11.4868 15.2313C11.6033 15.3513 11.7488 15.4113 11.9234 15.4113C12.069 15.4113 12.2436 15.3513 12.36 15.2313L17.803 9.62195C18.1232 9.29198 18.6471 9.29198 18.9672 9.62195C19.1128 9.77193 19.2001 9.9819 19.2001 10.2219C19.2001 10.4618 19.1128 10.6718 18.9672 10.8218L13.4952 16.4311C13.2623 16.6711 13.2623 17.0611 13.4952 17.301C13.6116 17.421 13.7572 17.481 13.9318 17.481C14.1064 17.481 14.252 17.421 14.3684 17.301L19.0546 12.4716C19.3747 12.1416 19.8987 12.1416 20.2188 12.4716C20.539 12.8016 20.539 13.3415 20.2188 13.6715L19.1128 14.8113L18.2978 15.6212L15.5036 18.5009C15.2707 18.7409 15.2707 19.1308 15.5036 19.3708C15.62 19.4908 15.7655 19.5508 15.9402 19.5508C16.1148 19.5508 16.2603 19.4908 16.3768 19.3708L19.9569 15.6812C20.277 15.3513 20.801 15.3513 21.1211 15.6812C21.2667 15.8312 21.354 16.0412 21.354 16.2812C21.354 16.5211 21.2667 16.7311 21.092 16.8811ZM17.3373 4.1026L18.8217 0.83299C18.9672 0.533026 19.3165 0.383043 19.6076 0.533026C19.8987 0.683008 20.0442 1.04297 19.8987 1.34293L18.4433 4.64254C18.3269 4.88251 18.1232 5.00249 17.8903 5.00249C17.803 5.00249 17.7157 4.9725 17.6283 4.9425C17.3373 4.79252 17.2208 4.40257 17.3373 4.1026ZM14.2229 0.772997C14.1355 0.443036 14.3393 0.113075 14.6595 0.0230862C14.9796 -0.0669031 15.2998 0.113075 15.3871 0.443036L16.2894 3.92262C16.3768 4.25258 16.173 4.58254 15.8528 4.67253C15.7946 4.67253 15.7364 4.70253 15.7073 4.70253C15.4453 4.70253 15.2125 4.52255 15.1252 4.25258L14.2229 0.772997ZM22.9257 4.9725L19.7531 6.50232C19.6658 6.53231 19.5785 6.56231 19.4912 6.56231C19.2583 6.56231 19.0546 6.44232 18.9381 6.20235C18.7926 5.90239 18.9381 5.51243 19.2292 5.39245L22.4018 3.86263C22.6929 3.71265 23.0713 3.86263 23.1877 4.16259C23.3623 4.46256 23.2168 4.82252 22.9257 4.9725Z" fill="black"/>
</svg>
