<svg width="64" height="17" viewBox="0 0 64 17" fill="none" xmlns="http://www.w3.org/2000/svg">
<path d="M4.44602 16L0.411932 1.45455H2.72017L5.55398 12.7188H5.68892L8.63636 1.45455H10.9233L13.8707 12.7259H14.0057L16.8324 1.45455H19.1477L15.1065 16H12.8977L9.83665 5.10511H9.72301L6.66193 16H4.44602ZM20.9783 16V5.09091H23.1019V16H20.9783ZM22.0508 3.40767C21.6815 3.40767 21.3642 3.28456 21.0991 3.03835C20.8387 2.7874 20.7085 2.48911 20.7085 2.14347C20.7085 1.79309 20.8387 1.49479 21.0991 1.24858C21.3642 0.997632 21.6815 0.872159 22.0508 0.872159C22.4201 0.872159 22.735 0.997632 22.9954 1.24858C23.2605 1.49479 23.3931 1.79309 23.3931 2.14347C23.3931 2.48911 23.2605 2.7874 22.9954 3.03835C22.735 3.28456 22.4201 3.40767 22.0508 3.40767ZM34.1335 7.75426L32.2088 8.09517C32.1283 7.84896 32.0005 7.61458 31.8253 7.39205C31.6548 7.16951 31.4228 6.98722 31.1293 6.84517C30.8357 6.70312 30.4688 6.6321 30.0284 6.6321C29.4271 6.6321 28.9252 6.76705 28.5227 7.03693C28.1203 7.30208 27.919 7.64536 27.919 8.06676C27.919 8.43134 28.054 8.72491 28.3239 8.94744C28.5938 9.16998 29.0294 9.35227 29.6307 9.49432L31.3636 9.89205C32.3674 10.1241 33.1155 10.4815 33.608 10.9645C34.1004 11.4474 34.3466 12.0748 34.3466 12.8466C34.3466 13.5 34.1572 14.0824 33.7784 14.5938C33.4044 15.1004 32.8812 15.4981 32.2088 15.7869C31.5412 16.0758 30.767 16.2202 29.8864 16.2202C28.6648 16.2202 27.6681 15.9598 26.8963 15.4389C26.1245 14.9134 25.651 14.1676 25.4759 13.2017L27.5284 12.8892C27.6563 13.4242 27.919 13.8291 28.3168 14.1037C28.7145 14.3736 29.233 14.5085 29.8722 14.5085C30.5682 14.5085 31.1245 14.3641 31.5412 14.0753C31.9579 13.7817 32.1662 13.4242 32.1662 13.0028C32.1662 12.6619 32.0384 12.3755 31.7827 12.1435C31.5317 11.9115 31.1458 11.7363 30.625 11.6179L28.7784 11.2131C27.7604 10.9811 27.0076 10.6117 26.5199 10.1051C26.0369 9.59848 25.7955 8.95691 25.7955 8.1804C25.7955 7.53646 25.9754 6.97301 26.3352 6.49006C26.6951 6.0071 27.1922 5.63068 27.8267 5.3608C28.4612 5.08617 29.188 4.94886 30.0071 4.94886C31.1861 4.94886 32.1141 5.20455 32.7912 5.71591C33.4683 6.22254 33.9157 6.90199 34.1335 7.75426ZM41.3832 16.2202C40.3084 16.2202 39.3827 15.9905 38.6062 15.5312C37.8344 15.0672 37.2378 14.4162 36.8164 13.5781C36.3997 12.7353 36.1914 11.7481 36.1914 10.6165C36.1914 9.49905 36.3997 8.5142 36.8164 7.66193C37.2378 6.80966 37.8249 6.14441 38.5778 5.66619C39.3353 5.18797 40.2208 4.94886 41.234 4.94886C41.8496 4.94886 42.4461 5.05066 43.0238 5.25426C43.6014 5.45786 44.1199 5.77746 44.5792 6.21307C45.0385 6.64867 45.4007 7.21449 45.6658 7.91051C45.931 8.6018 46.0636 9.44223 46.0636 10.4318V11.1847H37.3917V9.59375H43.9826C43.9826 9.03504 43.869 8.54025 43.6417 8.10938C43.4144 7.67377 43.0948 7.33049 42.6829 7.07955C42.2757 6.8286 41.7975 6.70312 41.2482 6.70312C40.6516 6.70312 40.1308 6.84991 39.6857 7.14347C39.2454 7.43229 38.9045 7.81108 38.663 8.27983C38.4263 8.74384 38.3079 9.24811 38.3079 9.79261V11.0355C38.3079 11.7647 38.4357 12.3849 38.6914 12.8963C38.9518 13.4077 39.314 13.7983 39.7781 14.0682C40.2421 14.3333 40.7842 14.4659 41.4045 14.4659C41.8069 14.4659 42.1739 14.4091 42.5053 14.2955C42.8368 14.1771 43.1232 14.0019 43.3647 13.7699C43.6062 13.5379 43.7908 13.2514 43.9187 12.9105L45.9286 13.2727C45.7676 13.8646 45.4788 14.383 45.0621 14.8281C44.6502 15.2685 44.1317 15.6117 43.5067 15.858C42.8865 16.0994 42.1786 16.2202 41.3832 16.2202ZM52.5036 16.2131C51.6229 16.2131 50.8369 15.9882 50.1456 15.5384C49.459 15.0838 48.9193 14.4375 48.5263 13.5994C48.138 12.7566 47.9439 11.7457 47.9439 10.5668C47.9439 9.38778 48.1404 8.37926 48.5334 7.54119C48.9311 6.70312 49.4756 6.06155 50.1669 5.61648C50.8582 5.1714 51.6418 4.94886 52.5178 4.94886C53.1948 4.94886 53.7393 5.0625 54.1513 5.28977C54.5679 5.51231 54.8899 5.77273 55.1172 6.07102C55.3492 6.36932 55.5291 6.6321 55.657 6.85938H55.7848V1.45455H57.9084V16H55.8345V14.3026H55.657C55.5291 14.5346 55.3445 14.7997 55.103 15.098C54.8662 15.3963 54.5395 15.6567 54.1229 15.8793C53.7062 16.1018 53.1664 16.2131 52.5036 16.2131ZM52.9723 14.402C53.5831 14.402 54.0992 14.241 54.5206 13.919C54.9467 13.5923 55.2687 13.1402 55.4865 12.5625C55.709 11.9848 55.8203 11.3125 55.8203 10.5455C55.8203 9.78788 55.7114 9.125 55.4936 8.55682C55.2758 7.98864 54.9562 7.54593 54.5348 7.22869C54.1134 6.91146 53.5926 6.75284 52.9723 6.75284C52.3331 6.75284 51.8004 6.91856 51.3743 7.25C50.9482 7.58144 50.6262 8.03362 50.4084 8.60653C50.1953 9.17945 50.0888 9.82576 50.0888 10.5455C50.0888 11.2746 50.1977 11.9304 50.4155 12.5128C50.6333 13.0952 50.9553 13.5568 51.3814 13.8977C51.8123 14.2339 52.3426 14.402 52.9723 14.402Z" fill="#202020"/>
<path d="M62.3384 16.1349C61.9502 16.1349 61.6164 15.9976 61.337 15.723C61.0576 15.4437 60.918 15.1075 60.918 14.7145C60.918 14.3262 61.0576 13.9948 61.337 13.7202C61.6164 13.4408 61.9502 13.3011 62.3384 13.3011C62.7267 13.3011 63.0605 13.4408 63.3398 13.7202C63.6192 13.9948 63.7589 14.3262 63.7589 14.7145C63.7589 14.9749 63.6926 15.214 63.56 15.4318C63.4322 15.6449 63.2617 15.8153 63.0487 15.9432C62.8356 16.071 62.5988 16.1349 62.3384 16.1349Z" fill="#EA3323"/>
</svg>
