<svg width="35" height="34" viewBox="0 0 35 34" fill="none" xmlns="http://www.w3.org/2000/svg">
<g clip-path="url(#clip0_3_2356)">
<rect width="24" height="24" transform="translate(0.656738 17) rotate(-45)" fill="white" fill-opacity="0.01"/>
<path fill-rule="evenodd" clip-rule="evenodd" d="M17.7362 24.9083C17.9989 24.9084 18.2591 24.8567 18.5018 24.7562C18.7445 24.6557 18.9651 24.5083 19.1508 24.3225C19.3366 24.1368 19.484 23.9162 19.5845 23.6735C19.685 23.4308 19.7367 23.1706 19.7366 22.9079L15.7351 22.9072C15.735 23.17 15.7866 23.4303 15.8871 23.6732C15.9877 23.916 16.1351 24.1367 16.3209 24.3225C16.5068 24.5084 16.7274 24.6558 16.9703 24.7563C17.2131 24.8568 17.4734 24.9085 17.7362 24.9083ZM12.5786 12.8253L12.5786 13.8506C12.5786 14.9565 12.2979 16.6953 11.9457 17.7517L10.8794 20.9521C10.7048 21.4774 11.0138 21.9123 11.5752 21.9123L23.6752 21.9123C24.2367 21.9109 24.5485 21.4817 24.3703 20.9514L23.3054 17.751C22.9561 16.7031 22.6732 14.9608 22.6725 13.8499L22.6718 12.8239C22.6719 11.6597 22.2695 10.5313 21.533 9.62976C20.7964 8.72823 19.7708 8.109 18.63 7.87696C18.6451 7.73999 18.632 7.60137 18.5916 7.46965C18.5511 7.33792 18.4841 7.21587 18.3947 7.11099C18.3053 7.00612 18.1954 6.92066 18.0718 6.85985C17.9481 6.79904 17.8133 6.76418 17.6757 6.75742C17.5381 6.75065 17.4005 6.77212 17.2715 6.82051C17.1424 6.86889 17.0247 6.94317 16.9254 7.03877C16.8262 7.13437 16.7475 7.24926 16.6944 7.37638C16.6412 7.50351 16.6146 7.64017 16.6162 7.77796C16.6176 7.8119 16.6183 7.84514 16.6225 7.87767C15.6506 8.07458 14.7582 8.55371 14.0572 9.25511C13.5877 9.7234 13.2154 10.2798 12.9616 10.8923C12.7077 11.5049 12.5773 12.1615 12.5779 12.8246L12.5786 12.8253Z" fill="black"/>
</g>
<defs>
<clipPath id="clip0_3_2356">
<rect width="24" height="24" fill="white" transform="translate(0.656738 17) rotate(-45)"/>
</clipPath>
</defs>
</svg>
