<svg width="38" height="38" viewBox="0 0 38 38" fill="none" xmlns="http://www.w3.org/2000/svg">
<path d="M18.9999 16.8564C21.3677 16.8564 23.2871 14.937 23.2871 12.5692C23.2871 10.2015 21.3677 8.28204 18.9999 8.28204C16.6322 8.28204 14.7128 10.2015 14.7128 12.5692C14.7128 14.937 16.6322 16.8564 18.9999 16.8564Z" fill="black"/>
<path d="M19 0C8.52564 0 0 8.52564 0 19C0 29.4744 8.52564 38 19 38C29.4744 38 38 29.4744 38 19C38 8.52564 29.4744 0 19 0ZM28.159 30.2051C28.159 25.041 23.8718 20.5103 19 20.5103C14.1282 20.5103 9.84103 25.041 9.84103 30.2051H7.89231C7.89231 24.359 12.2769 19.341 17.7333 18.659C14.9077 18.0744 12.8128 15.541 12.8128 12.5692C12.7641 9.11026 15.5897 6.33333 19 6.33333C22.4103 6.33333 25.2359 9.11026 25.2359 12.5692C25.2359 15.541 23.141 18.0744 20.3154 18.659C25.7231 19.341 30.1077 24.359 30.1077 30.2051H28.159Z" fill="black"/>
</svg>
