<svg width="38" height="38" viewBox="0 0 38 38" fill="none" xmlns="http://www.w3.org/2000/svg">
<path fill-rule="evenodd" clip-rule="evenodd" d="M19 38C8.50659 38 0 29.4934 0 19C0 8.50659 8.50659 0 19 0C29.4934 0 38 8.50659 38 19C38 29.4934 29.4934 38 19 38ZM16.2857 16.9643H9.5C8.37571 16.9643 7.46429 17.8757 7.46429 19C7.46429 20.1243 8.37571 21.0357 9.5 21.0357H16.2857C16.6605 21.0357 16.9643 21.3395 16.9643 21.7143V28.5C16.9643 29.6243 17.8757 30.5357 19 30.5357C20.1243 30.5357 21.0357 29.6243 21.0357 28.5V21.7143C21.0357 21.3395 21.3395 21.0357 21.7143 21.0357H28.5C29.6243 21.0357 30.5357 20.1243 30.5357 19C30.5357 17.8757 29.6243 16.9643 28.5 16.9643H21.7143C21.3395 16.9643 21.0357 16.6605 21.0357 16.2857V9.5C21.0357 8.37571 20.1243 7.46429 19 7.46429C17.8757 7.46429 16.9643 8.37571 16.9643 9.5V16.2857C16.9643 16.6605 16.6605 16.9643 16.2857 16.9643Z" fill="black"/>
</svg>
