<svg width="16" height="20" viewBox="0 0 16 20" fill="none" xmlns="http://www.w3.org/2000/svg">
<path fill-rule="evenodd" clip-rule="evenodd" d="M15.4161 2.14271V17.8574C15.4161 18.7037 14.927 19.4708 14.1681 19.8151C13.4092 20.1593 12.5221 20.0151 11.9054 19.448L8.17752 16.0196C7.91055 15.7746 7.50553 15.7746 7.23855 16.0196L3.51066 19.448C2.89402 20.0151 2.00689 20.1593 1.248 19.8151C0.489109 19.4708 0 18.7037 0 17.8574V2.14271C0 1.57418 0.221432 1.02921 0.615943 0.627812C1.00975 0.225697 1.54441 0 2.10219 0H13.3139C13.8717 0 14.4063 0.225697 14.8001 0.627812C15.1946 1.02921 15.4161 1.57418 15.4161 2.14271ZM14.0146 2.14271C14.0146 1.95344 13.941 1.77131 13.8093 1.63774C13.6783 1.50347 13.4996 1.42847 13.3139 1.42847H2.10219C1.9165 1.42847 1.73781 1.50347 1.60677 1.63774C1.47504 1.77131 1.40146 1.95344 1.40146 2.14271V17.8574C1.40146 18.1395 1.56473 18.3952 1.8177 18.5101C2.07066 18.6244 2.36637 18.5766 2.57168 18.3873L6.29957 14.959C7.0998 14.2233 8.31627 14.2233 9.1165 14.959L12.8444 18.3873C13.0497 18.5766 13.3454 18.6244 13.5984 18.5101C13.8513 18.3952 14.0146 18.1395 14.0146 17.8574V2.14271ZM7.70804 4.48826C8.92801 3.36977 10.7212 3.51475 11.6889 4.31184C12.7995 5.22606 12.9558 7.05023 11.8501 8.87939C11.1746 10.0607 9.47528 11.2685 8.04018 12.0563C7.83277 12.1706 7.58331 12.1706 7.37589 12.0563C5.94079 11.2685 4.24152 10.0607 3.56602 8.87939C2.46027 7.05023 2.61723 5.22606 3.72719 4.31184C4.69489 3.51475 6.48806 3.36977 7.70804 4.48826ZM7.11242 5.97245C6.48456 4.93823 5.23586 4.90608 4.608 5.42319C4.32631 5.6546 4.20438 6.0103 4.20438 6.41599C4.20438 6.94095 4.39919 7.53662 4.76357 8.13586C4.76707 8.14229 4.77057 8.14872 4.77408 8.15443C5.29122 9.06723 6.56514 9.95646 7.70804 10.6121C8.85023 9.95646 10.1249 9.06723 10.642 8.15443C10.6455 8.14872 10.649 8.14229 10.6525 8.13586C11.0169 7.53662 11.2117 6.94095 11.2117 6.41599C11.2117 6.0103 11.0898 5.6546 10.8081 5.42319C10.1802 4.90608 8.93151 4.93823 8.30366 5.97245C8.17612 6.18243 7.95049 6.31027 7.70804 6.31027C7.46558 6.31027 7.23995 6.18243 7.11242 5.97245Z" fill="black"/>
</svg>
