<svg width="33" height="32" viewBox="0 0 33 32" fill="none" xmlns="http://www.w3.org/2000/svg">
<path d="M13.4046 26.7869C16.4228 26.789 19.3524 25.7664 21.7137 23.8867L29.827 32L32.0112 29.8158L23.8979 21.7025C25.7791 19.3242 26.7976 16.3779 26.7868 13.3456C26.7759 10.3132 25.7364 7.37426 23.8382 5.00948C21.94 2.6447 19.2955 0.994055 16.3373 0.327544C13.3791 -0.338967 10.2822 0.0181112 7.55329 1.34037C4.82438 2.66263 2.62493 4.8718 1.31472 7.60652C0.00451577 10.3412 -0.338898 13.4396 0.340656 16.3949C1.02021 19.3502 2.68251 21.9873 5.05564 23.8751C7.42877 25.7628 10.3723 26.7894 13.4046 26.7869ZM13.4046 3.0908C15.4423 3.0908 17.4342 3.69504 19.1285 4.82711C20.8227 5.95918 22.1433 7.56823 22.923 9.45079C23.7028 11.3334 23.9068 13.4049 23.5093 15.4034C23.1118 17.4019 22.1306 19.2377 20.6897 20.6785C19.2489 22.1194 17.4131 23.1006 15.4146 23.4981C13.4161 23.8956 11.3446 23.6916 9.462 22.9118C7.57944 22.1321 5.97038 20.8115 4.83831 19.1173C3.70625 17.423 3.10201 15.4311 3.10201 13.3934C3.10201 10.661 4.18746 8.04049 6.11958 6.10837C8.0517 4.17625 10.6722 3.0908 13.4046 3.0908Z" fill="black"/>
</svg>
