<svg width="25" height="24" viewBox="0 0 25 24" fill="none" xmlns="http://www.w3.org/2000/svg">
<rect width="24" height="24" transform="translate(0.254883)" fill="white" fill-opacity="0.01"/>
<path fill-rule="evenodd" clip-rule="evenodd" d="M11.9559 16.7C11.2932 16.7094 10.6352 16.5869 10.0201 16.3398C9.40511 16.0926 8.84533 15.7257 8.37335 15.2604C7.90136 14.795 7.52656 14.2405 7.27075 13.629C7.01494 13.0175 6.8832 12.3613 6.8832 11.6985C6.8832 11.0357 7.01494 10.3795 7.27075 9.76799C7.52656 9.15652 7.90136 8.60199 8.37335 8.13663C8.84533 7.67127 9.40511 7.30435 10.0201 7.05721C10.6352 6.81006 11.2932 6.68762 11.9559 6.69699C13.2825 6.69699 14.5548 7.22399 15.4929 8.16204C16.4309 9.1001 16.9579 10.3724 16.9579 11.699C16.9579 13.0256 16.4309 14.2979 15.4929 15.2359C14.5548 16.174 13.2825 16.701 11.9559 16.701V16.7ZM20.3239 13.584C19.9313 13.4489 19.5906 13.1947 19.3493 12.8568C19.1081 12.5189 18.9782 12.1142 18.9779 11.699C18.9779 10.823 19.5409 10.086 20.3229 9.81399C20.4383 9.77596 20.535 9.69557 20.5935 9.58904C20.6519 9.48251 20.6678 9.35777 20.6379 9.23999C20.4408 8.54432 20.1601 7.8751 19.8019 7.24699C19.7429 7.14748 19.6496 7.07284 19.5396 7.03696C19.4296 7.00109 19.3103 7.00643 19.2039 7.05199C18.794 7.21777 18.3412 7.24585 17.9139 7.13199C17.5785 7.04234 17.2723 6.86638 17.026 6.62163C16.7797 6.37688 16.6017 6.07188 16.5099 5.73699C16.3932 5.30793 16.4199 4.85249 16.5859 4.43999C16.6309 4.3336 16.6358 4.21451 16.5998 4.10476C16.5638 3.99501 16.4892 3.90202 16.3899 3.84299C15.7669 3.48989 15.1038 3.21259 14.4149 3.01699C14.2973 2.98679 14.1725 3.00243 14.066 3.06072C13.9594 3.11902 13.879 3.21563 13.8409 3.33099C13.7059 3.7236 13.4517 4.06429 13.1138 4.30557C12.7759 4.54684 12.3711 4.67668 11.9559 4.67699C11.541 4.67669 11.1365 4.54696 10.7988 4.30587C10.4611 4.06477 10.207 3.72434 10.0719 3.33199C10.0335 3.21664 9.95286 3.12009 9.84623 3.06167C9.7396 3.00325 9.61483 2.98729 9.49692 3.01699C8.78892 3.21699 8.11792 3.50199 7.49292 3.85899C7.39553 3.91606 7.32193 4.00627 7.28557 4.11313C7.24922 4.21999 7.25254 4.33637 7.29492 4.44099C7.44419 4.8048 7.48301 5.20452 7.40653 5.59025C7.33005 5.97599 7.14166 6.33066 6.86488 6.61C6.5881 6.88934 6.23518 7.08098 5.85016 7.16101C5.46515 7.24104 5.06509 7.2059 4.69992 7.05999C4.59376 7.01557 4.47514 7.01093 4.36584 7.04694C4.25654 7.08294 4.16389 7.15717 4.10492 7.25599C3.7477 7.88456 3.468 8.55411 3.27192 9.24999C3.24223 9.36659 3.25741 9.49008 3.31445 9.59602C3.37149 9.70195 3.46624 9.7826 3.57992 9.82199C3.96695 9.96045 4.30176 10.2151 4.53857 10.551C4.77538 10.887 4.90263 11.2879 4.90292 11.699C4.90292 12.566 4.35092 13.298 3.57892 13.576C3.46553 13.6152 3.37097 13.6955 3.31394 13.801C3.2569 13.9066 3.24155 14.0297 3.27092 14.146C3.44698 14.7669 3.68937 15.367 3.99392 15.936C4.05371 16.0417 4.15154 16.1206 4.26749 16.1566C4.38343 16.1927 4.50876 16.1831 4.61792 16.13C5.21292 15.857 5.96092 15.866 6.72192 16.368C6.83892 16.445 6.94692 16.553 7.02392 16.668C7.55092 17.468 7.53592 18.248 7.22192 18.856C7.16436 18.9623 7.1497 19.0866 7.18094 19.2034C7.21219 19.3202 7.28697 19.4206 7.38992 19.484C8.05187 19.8723 8.76103 20.1737 9.49992 20.381C9.61693 20.4113 9.74111 20.3958 9.84706 20.3377C9.95301 20.2795 10.0327 20.183 10.0699 20.068C10.2039 19.6739 10.4577 19.3316 10.7959 19.089C11.1341 18.8464 11.5397 18.7156 11.9559 18.715C12.8339 18.715 13.5739 19.282 13.8429 20.068C13.8803 20.1829 13.9601 20.2792 14.066 20.3373C14.1719 20.3955 14.2959 20.4111 14.4129 20.381C15.1421 20.1759 15.8424 19.8792 16.4969 19.498C16.6005 19.4344 16.6756 19.3334 16.7067 19.2159C16.7378 19.0984 16.7225 18.9735 16.6639 18.867C16.3459 18.259 16.3269 17.474 16.8549 16.672C16.9319 16.556 17.0399 16.447 17.1569 16.37C17.9289 15.859 18.6839 15.857 19.2819 16.14C19.391 16.1947 19.517 16.2055 19.6338 16.1701C19.7506 16.1348 19.8494 16.056 19.9099 15.95C20.2169 15.3805 20.461 14.7793 20.6379 14.157C20.6681 14.0395 20.6524 13.9149 20.5941 13.8085C20.5358 13.7021 20.4392 13.6218 20.3239 13.584Z" fill="black"/>
</svg>
