<svg width="23" height="17" viewBox="0 0 23 17" fill="none" xmlns="http://www.w3.org/2000/svg">
<path d="M22.7571 8.44977L19.4725 5.16519C19.3944 5.09043 19.3023 5.03183 19.2015 4.99275C19.0016 4.91062 18.7774 4.91062 18.5774 4.99275C18.4766 5.03183 18.3846 5.09043 18.3065 5.16519L15.0219 8.44977C14.9453 8.52633 14.8846 8.61722 14.8432 8.71725C14.8017 8.81729 14.7804 8.9245 14.7804 9.03278C14.7804 9.14105 14.8017 9.24827 14.8432 9.3483C14.8846 9.44834 14.9453 9.53923 15.0219 9.61579C15.0985 9.69235 15.1893 9.75309 15.2894 9.79452C15.3894 9.83596 15.4966 9.85728 15.6049 9.85728C15.7132 9.85728 15.8204 9.83596 15.9204 9.79452C16.0205 9.75309 16.1114 9.69235 16.1879 9.61579L18.0683 7.72716V14.7808H4.93003C4.71225 14.7808 4.50339 14.8673 4.34939 15.0213C4.1954 15.1753 4.10889 15.3841 4.10889 15.6019C4.10889 15.8197 4.1954 16.0286 4.34939 16.1826C4.50339 16.3366 4.71225 16.4231 4.93003 16.4231H18.8895C19.1073 16.4231 19.3161 16.3366 19.4701 16.1826C19.6241 16.0286 19.7106 15.8197 19.7106 15.6019V7.72716L21.591 9.61579C21.6674 9.69275 21.7582 9.75384 21.8583 9.79553C21.9583 9.83722 22.0657 9.85868 22.1741 9.85868C22.2825 9.85868 22.3898 9.83722 22.4898 9.79553C22.5899 9.75384 22.6807 9.69275 22.7571 9.61579C22.834 9.53945 22.8951 9.44864 22.9368 9.34857C22.9785 9.24851 23 9.14118 23 9.03278C23 8.92438 22.9785 8.81705 22.9368 8.71699C22.8951 8.61692 22.834 8.5261 22.7571 8.44977Z" fill="black"/>
<path d="M3.79704 11.4303C3.89534 11.4738 4.00162 11.4962 4.10908 11.4962C4.21654 11.4962 4.32282 11.4738 4.42111 11.4303C4.52191 11.3912 4.614 11.3326 4.69209 11.2579L7.97667 7.97331C8.13129 7.81868 8.21816 7.60897 8.21816 7.3903C8.21816 7.17162 8.13129 6.96191 7.97667 6.80728C7.82204 6.65266 7.61233 6.56579 7.39366 6.56579C7.17498 6.56579 6.96527 6.65266 6.81064 6.80728L4.93022 8.69592V1.64229H18.0685C18.2863 1.64229 18.4952 1.55577 18.6492 1.40178C18.8032 1.24779 18.8897 1.03892 18.8897 0.821144C18.8897 0.603363 18.8032 0.394502 18.6492 0.240508C18.4952 0.0865133 18.2863 0 18.0685 0H4.10908C3.8913 0 3.68244 0.0865133 3.52844 0.240508C3.37445 0.394502 3.28794 0.603363 3.28794 0.821144V8.69592L1.40752 6.80728C1.25289 6.65266 1.04318 6.56579 0.824504 6.56579C0.605832 6.56579 0.396116 6.65266 0.241492 6.80728C0.0868671 6.96191 0 7.17162 0 7.3903C0 7.60897 0.0868671 7.81868 0.241492 7.97331L3.52607 11.2579C3.60416 11.3326 3.69625 11.3912 3.79704 11.4303Z" fill="black"/>
</svg>
