<svg width="19" height="9" viewBox="0 0 19 9" fill="none" xmlns="http://www.w3.org/2000/svg">
<path d="M17.2929 1H14.5C14.2239 1 14 0.776142 14 0.5C14 0.223858 14.2239 0 14.5 0H18.5C18.7761 0 19 0.223858 19 0.5V4.5C19 4.77614 18.7761 5 18.5 5C18.2239 5 18 4.77614 18 4.5V1.70711L11.8536 7.85355C11.6583 8.04882 11.3417 8.04882 11.1464 7.85355L6.5 3.20711L0.853553 8.85355C0.658291 9.04882 0.341709 9.04882 0.146447 8.85355C-0.0488155 8.65829 -0.0488155 8.34171 0.146447 8.14645L6.14645 2.14645C6.34171 1.95118 6.65829 1.95118 6.85355 2.14645L11.5 6.79289L17.2929 1Z" fill="white"/>
</svg>
