<svg width="16" height="11" viewBox="0 0 16 11" fill="none" xmlns="http://www.w3.org/2000/svg">
<path d="M7.15625 -9.53674e-07V3C7.15625 3.88542 6.98958 4.81771 6.65625 5.79688C6.33333 6.76563 5.875 7.69792 5.28125 8.59375C4.6875 9.48958 3.98958 10.2604 3.1875 10.9062L0.875 9.25C1.48958 8.35417 2.02083 7.40104 2.46875 6.39062C2.92708 5.38021 3.15625 4.26562 3.15625 3.04688V-9.53674e-07H7.15625ZM15.1094 -9.53674e-07V3C15.1094 3.88542 14.9427 4.81771 14.6094 5.79688C14.2865 6.76563 13.8281 7.69792 13.2344 8.59375C12.6406 9.48958 11.9427 10.2604 11.1406 10.9062L8.82812 9.25C9.44271 8.35417 9.97396 7.40104 10.4219 6.39062C10.8802 5.38021 11.1094 4.26562 11.1094 3.04688V-9.53674e-07H15.1094Z" fill="white"/>
</svg>
