<svg width="15" height="15" viewBox="0 0 15 15" fill="none" xmlns="http://www.w3.org/2000/svg">
<path d="M11.3873 7.65735L13.2884 5.75632C13.7721 5.26714 14.0434 4.60694 14.0434 3.91899C14.0434 3.23103 13.7721 2.57083 13.2884 2.08165L12.9617 1.75501C12.4726 1.27129 11.8124 1 11.1244 1C10.4364 1 9.77625 1.27129 9.28707 1.75501C9.28707 1.75501 7.0006 3.84549 6.38326 4.65882C5.43927 5.88698 5.33475 6.47166 6.90588 8.87571" stroke="#6B778C" stroke-miterlimit="10"/>
<path d="M3.65604 7.311L1.75501 9.2251C1.27129 9.71428 1 10.3745 1 11.0624C1 11.7504 1.27129 12.4106 1.75501 12.8998L2.08165 13.2264C2.57083 13.7101 3.23103 13.9814 3.91899 13.9814C4.60694 13.9814 5.26714 13.7101 5.75632 13.2264C5.75632 13.2264 8.04278 11.1359 8.66013 10.3226C9.60411 9.09445 9.70864 8.50976 8.13751 6.10571" stroke="#6B778C" stroke-miterlimit="10"/>
</svg>
