<svg width="21" height="19" viewBox="0 0 21 19" fill="none" xmlns="http://www.w3.org/2000/svg">
<g opacity="0.4">
<path d="M19.775 9.2C19.675 9.1 19.675 9 19.575 9C19.475 8.8 19.275 8.6 19.075 8.4C18.575 7.9 17.875 7.3 17.075 6.6C15.375 5.3 12.875 4 9.975 4C7.075 4 4.475 5.3 2.775 6.6C1.875 7.2 1.175 7.9 0.775 8.4C0.575 8.6 0.375 8.8 0.275 9C0.175 9.1 0.175 9.1 0.075 9.2C-0.025 9.4 -0.025 9.6 0.075 9.8C0.075 9.8 0.175 9.9 0.275 10C0.375 10.2 0.575 10.4 0.775 10.6C1.275 11.1 1.975 11.7 2.775 12.4C4.475 13.7 6.975 15 9.875 15C12.775 15 15.275 13.7 16.975 12.4C17.875 11.8 18.575 11.1 18.975 10.6C19.175 10.4 19.375 10.2 19.475 10C19.575 9.9 19.575 9.9 19.675 9.8C19.875 9.6 19.875 9.4 19.775 9.2ZM18.275 9.9C17.775 10.4 17.175 11 16.375 11.6C14.775 12.8 12.475 14 9.875 14C7.275 14 4.975 12.8 3.375 11.6C2.575 11 1.875 10.4 1.475 9.9C1.275 9.7 1.175 9.6 1.075 9.5C1.175 9.4 1.275 9.2 1.475 9.1C1.975 8.6 2.575 8 3.375 7.4C4.975 6.2 7.275 5 9.875 5C12.475 5 14.775 6.2 16.375 7.4C17.175 8 17.875 8.6 18.275 9.1C18.475 9.3 18.575 9.4 18.675 9.5C18.575 9.6 18.475 9.8 18.275 9.9Z" fill="black"/>
<path d="M9.875 6C7.975 6 6.375 7.6 6.375 9.5C6.375 11.4 7.975 13 9.875 13C11.775 13 13.375 11.4 13.375 9.5C13.375 7.6 11.775 6 9.875 6ZM9.875 12C8.475 12 7.375 10.9 7.375 9.5C7.375 8.1 8.475 7 9.875 7C11.275 7 12.375 8.1 12.375 9.5C12.375 10.9 11.275 12 9.875 12Z" fill="black"/>
<path d="M20.5 0.5L2.5 18" stroke="black"/>
</g>
</svg>
