<svg width="19" height="19" viewBox="0 0 19 19" fill="none" xmlns="http://www.w3.org/2000/svg">
<path d="M9.49997 0C4.25956 0 0 4.25966 0 9.49997C0 11.9208 0.919406 14.1273 2.39031 15.7822C2.42088 15.8128 2.42088 15.8436 2.45166 15.8436C4.19854 17.774 6.71133 19 9.50003 19C14.7404 19 19 14.7403 19 9.50003C19 4.25972 14.7403 0 9.49997 0ZM16.2725 3.76951C17.529 5.24042 18.2952 7.14057 18.3871 9.19374L14.4032 9.19352C14.3726 7.5388 14.158 6.00655 13.7595 4.6887C14.6789 4.47429 15.5369 4.13719 16.2725 3.76951ZM5.20966 9.19352C5.24023 7.59992 5.48542 6.12901 5.85332 4.84192C7.01767 5.08711 8.24341 5.20981 9.49992 5.20981C10.7564 5.20981 11.9821 5.08732 13.1159 4.84213C13.5144 6.12923 13.7596 7.60008 13.7596 9.19373L5.20966 9.19352ZM13.7903 9.80658C13.7597 11.4002 13.5145 12.8711 13.1466 14.1582C11.9823 13.913 10.7565 13.7903 9.50003 13.7903C8.24353 13.7903 7.01783 13.9128 5.88402 14.158C5.48557 12.8709 5.24036 11.4 5.24036 9.80637L13.7903 9.80658ZM15.8437 3.27919C15.1695 3.61629 14.4033 3.89203 13.5453 4.10666C13.0549 2.69688 12.3501 1.56312 11.5535 0.858335C13.2082 1.25657 14.7097 2.11462 15.8437 3.27919ZM9.50014 0.61312C10.8791 0.61312 12.1356 2.05344 12.9323 4.25994C11.8599 4.47434 10.6953 4.59683 9.50014 4.59683C8.30498 4.59683 7.14041 4.47434 6.06795 4.25972C6.86466 2.05349 8.12116 0.61312 9.50014 0.61312ZM7.41638 0.858094C6.58891 1.56288 5.91472 2.69691 5.42456 4.10642C4.59709 3.8918 3.80037 3.61605 3.12618 3.27895C4.29053 2.1146 5.79203 1.25654 7.41638 0.858094ZM2.72747 3.76954C3.46301 4.16799 4.32107 4.47432 5.24047 4.71948C4.84202 6.03711 4.62763 7.56936 4.59682 9.22431H0.613124C0.705043 7.14033 1.47119 5.24045 2.72747 3.76954ZM2.72747 15.2308C1.47097 13.7599 0.70484 11.8597 0.612905 9.80656H4.59682C4.62739 11.4613 4.84201 12.9935 5.24047 14.3114C4.32107 14.526 3.46306 14.8631 2.72747 15.2308ZM3.15649 15.7212C3.83068 15.3841 4.59681 15.1083 5.45487 14.8937C5.94524 16.3035 6.65003 17.4372 7.44669 18.142C5.79197 17.7438 4.29047 16.8857 3.15649 15.7212ZM9.50002 18.3872C8.12104 18.3872 6.86454 16.9469 6.06783 14.7404C7.14029 14.526 8.30486 14.4035 9.50002 14.4035C10.6952 14.4035 11.8597 14.526 12.9322 14.7406C12.1355 16.9469 10.879 18.3872 9.50002 18.3872ZM11.5838 18.1423C12.4112 17.4375 13.0854 16.3034 13.5756 14.8939C14.4031 15.1086 15.1998 15.3843 15.874 15.7214C14.7096 16.8858 13.2081 17.7438 11.5838 18.1423ZM16.2727 15.2308C15.5371 14.8324 14.6791 14.526 13.7597 14.2809C14.1581 12.9632 14.3725 11.431 14.4033 9.77604H18.3873C18.2951 11.86 17.529 13.7599 16.2727 15.2308Z" fill="#B8B9BC"/>
</svg>
