<svg width="149" height="37" viewBox="0 0 149 37" fill="none" xmlns="http://www.w3.org/2000/svg">
<path d="M10.3741 36L0.961174 2.0606H6.34707L12.9593 28.3437H13.2741L20.1515 2.0606H25.4877L32.3651 28.3603H32.6799L39.2756 2.0606H44.678L35.2486 36H30.0947L22.9522 10.5786H22.687L15.5445 36H10.3741ZM48.9495 36V10.5455H53.9045V36H48.9495ZM51.4518 6.61789C50.5901 6.61789 49.8499 6.33065 49.2312 5.75615C48.6235 5.17061 48.3197 4.47458 48.3197 3.66808C48.3197 2.85053 48.6235 2.15451 49.2312 1.58001C49.8499 0.994471 50.5901 0.7017 51.4518 0.7017C52.3136 0.7017 53.0483 0.994471 53.6559 1.58001C54.2746 2.15451 54.5839 2.85053 54.5839 3.66808C54.5839 4.47458 54.2746 5.17061 53.6559 5.75615C53.0483 6.33065 52.3136 6.61789 51.4518 6.61789ZM79.6449 16.7599L75.1539 17.5554C74.9661 16.9809 74.6678 16.434 74.259 15.9148C73.8613 15.3955 73.3199 14.9702 72.635 14.6387C71.95 14.3073 71.0938 14.1416 70.0663 14.1416C68.6632 14.1416 67.4921 14.4564 66.553 15.0862C65.614 15.7049 65.1444 16.5058 65.1444 17.4891C65.1444 18.3398 65.4593 19.0248 66.089 19.544C66.7188 20.0633 67.7352 20.4886 69.1383 20.8201L73.1818 21.7481C75.524 22.2895 77.2696 23.1236 78.4186 24.2505C79.5676 25.3774 80.1421 26.8412 80.1421 28.642C80.1421 30.1667 79.7001 31.5256 78.8163 32.7187C77.9435 33.9009 76.7227 34.8289 75.1539 35.5028C73.5961 36.1768 71.7898 36.5137 69.7349 36.5137C66.8845 36.5137 64.5589 35.9061 62.7581 34.6908C60.9572 33.4645 59.8524 31.7244 59.4437 29.4706L64.233 28.7415C64.5313 29.9899 65.1444 30.9345 66.0725 31.5753C67.0005 32.205 68.2102 32.5199 69.7017 32.5199C71.3258 32.5199 72.6239 32.1829 73.5961 31.509C74.5683 30.824 75.0545 29.9899 75.0545 29.0066C75.0545 28.2112 74.7562 27.5428 74.1596 27.0014C73.574 26.4601 72.6736 26.0513 71.4583 25.7751L67.1496 24.8305C64.7743 24.2891 63.0177 23.4274 61.8797 22.2453C60.7528 21.0631 60.1894 19.5661 60.1894 17.7543C60.1894 16.2517 60.6092 14.937 61.4489 13.8101C62.2885 12.6832 63.4486 11.8049 64.929 11.1752C66.4094 10.5344 68.1053 10.214 70.0166 10.214C72.7675 10.214 74.9329 10.8106 76.5128 12.0038C78.0927 13.1859 79.1367 14.7713 79.6449 16.7599ZM96.5607 36.5137C94.0528 36.5137 91.893 35.9779 90.0811 34.9062C88.2803 33.8235 86.8882 32.3045 85.905 30.349C84.9327 28.3824 84.4466 26.0789 84.4466 23.4384C84.4466 20.8311 84.9327 18.5331 85.905 16.5445C86.8882 14.5559 88.2582 13.0036 90.0148 11.8878C91.7825 10.7719 93.8485 10.214 96.2127 10.214C97.649 10.214 99.041 10.4515 100.389 10.9266C101.737 11.4017 102.946 12.1474 104.018 13.1638C105.09 14.1802 105.935 15.5005 106.554 17.1245C107.172 18.7375 107.482 20.6985 107.482 23.0076V24.7642H87.2473V21.0521H102.626C102.626 19.7484 102.361 18.5939 101.831 17.5885C101.3 16.5721 100.555 15.7711 99.5934 15.1856C98.6433 14.6001 97.5274 14.3073 96.2459 14.3073C94.8538 14.3073 93.6385 14.6498 92.6 15.3348C91.5726 16.0087 90.7771 16.8925 90.2137 17.9863C89.6613 19.069 89.3851 20.2456 89.3851 21.5161V24.4162C89.3851 26.1176 89.6834 27.5649 90.28 28.758C90.8876 29.9512 91.7328 30.8627 92.8155 31.4924C93.8982 32.1111 95.1632 32.4205 96.6105 32.4205C97.5495 32.4205 98.4057 32.2879 99.1791 32.0227C99.9525 31.7465 100.621 31.3378 101.184 30.7964C101.748 30.255 102.179 29.5866 102.477 28.7912L107.167 29.6364C106.791 31.0174 106.117 32.2271 105.145 33.2656C104.184 34.2931 102.974 35.0941 101.516 35.6686C100.068 36.232 98.4168 36.5137 96.5607 36.5137ZM122.508 36.4972C120.453 36.4972 118.619 35.9724 117.006 34.9228C115.404 33.8622 114.145 32.3542 113.228 30.3987C112.322 28.4321 111.869 26.0734 111.869 23.3224C111.869 20.5715 112.328 18.2183 113.245 16.2628C114.173 14.3073 115.443 12.8103 117.056 11.7718C118.669 10.7333 120.498 10.214 122.541 10.214C124.121 10.214 125.392 10.4792 126.353 11.0095C127.325 11.5287 128.076 12.1364 128.607 12.8324C129.148 13.5284 129.568 14.1416 129.866 14.6719H130.165V2.0606H135.12V36H130.281V32.0393H129.866C129.568 32.5806 129.137 33.1993 128.574 33.8954C128.021 34.5914 127.259 35.199 126.287 35.7183C125.314 36.2375 124.055 36.4972 122.508 36.4972ZM123.602 32.2713C125.027 32.2713 126.231 31.8957 127.215 31.1444C128.209 30.3821 128.96 29.327 129.469 27.9792C129.988 26.6313 130.247 25.0625 130.247 23.2727C130.247 21.505 129.993 19.9583 129.485 18.6326C128.977 17.3068 128.231 16.2738 127.248 15.5336C126.265 14.7934 125.049 14.4233 123.602 14.4233C122.111 14.4233 120.868 14.81 119.873 15.5833C118.879 16.3567 118.128 17.4118 117.62 18.7486C117.122 20.0854 116.874 21.5934 116.874 23.2727C116.874 24.9741 117.128 26.5043 117.636 27.8632C118.144 29.2221 118.896 30.2992 119.89 31.0947C120.895 31.8791 122.133 32.2713 123.602 32.2713Z" fill="#202020"/>
<path d="M145.456 36.3149C144.55 36.3149 143.772 35.9945 143.12 35.3537C142.468 34.7019 142.142 33.9175 142.142 33.0005C142.142 32.0945 142.468 31.3212 143.12 30.6804C143.772 30.0286 144.55 29.7027 145.456 29.7027C146.362 29.7027 147.141 30.0286 147.793 30.6804C148.445 31.3212 148.771 32.0945 148.771 33.0005C148.771 33.6081 148.616 34.166 148.307 34.6742C148.008 35.1714 147.611 35.5691 147.114 35.8674C146.616 36.1657 146.064 36.3149 145.456 36.3149Z" fill="#EA3323"/>
</svg>
